<svg xmlns="http://www.w3.org/2000/svg" viewBox="0 0 16 16" shape-rendering="crispEdges"><path d="M0,0h16v16h-16v-16zM2,2h2v5h-2v-5h-1v6h2v6h-2v1h2v-1h1v1h1v-13h1v13h2v-7h1v7h2v-7h1v7h3v-1h-1v-6h1v-1h-1v-5h1v-1h-3v6h-1v-6h-1v2h-1v-2h-1v2h-1v-1h-1v-1h-4v1zM8,4h1v3h-1v-3zM12,7h1v1h-1v-1z" fill="#000000" fill-opacity="1.000" fill-rule="evenodd"/><path d="M2,1h2v1h-2v-1zM8,1h1v2h1v12h-1v-7h-1v7h-1v-12h1v-2zM13,1h2v1h-1v5h1v1h-1v6h1v1h-2v-14zM1,2h1v5h2v7h-1v-6h-2v-6zM8,7h1v-3h-1v3zM1,14h2v1h-2v-1z" fill="#ffffff" fill-opacity="1.000" fill-rule="evenodd"/><path d="M4,1h2v1h-1v13h-1v-14zM10,1h1v6h1v1h-1v7h-1v-14zM12,1h1v6h-1v-6zM6,2h1v13h-1v-13zM12,8h1v7h-1v-7z" fill="#17ee17" fill-opacity="1.000" fill-rule="evenodd"/></svg>